<?xml version="1.0" standalone="no"?>
<!DOCTYPE svg PUBLIC "-//W3C//DTD SVG 20010904//EN"
 "http://www.w3.org/TR/2001/REC-SVG-20010904/DTD/svg10.dtd">
<svg version="1.0" xmlns="http://www.w3.org/2000/svg"
 width="420.000000pt" height="395.000000pt" viewBox="0 0 420.000000 395.000000"
 preserveAspectRatio="xMidYMid meet">

<g transform="translate(0.000000,395.000000) scale(0.100000,-0.100000)"
fill="#000000" stroke="none">
<path d="M2031 3658 c-5 -13 -32 -78 -60 -145 -28 -68 -51 -125 -51 -128 0 -3
17 -5 38 -5 32 0 41 5 50 25 10 22 18 25 67 25 53 0 57 -2 66 -30 10 -26 16
-30 50 -30 21 0 39 1 39 3 0 1 -22 70 -48 152 l-48 150 -47 3 c-41 3 -48 0
-56 -20z m52 -166 c-19 -2 -37 -1 -39 1 -2 2 6 28 18 58 l22 53 17 -54 17 -55
-35 -3z"/>
<path d="M1655 3646 c-61 -27 -78 -86 -54 -195 15 -69 52 -101 120 -101 89 0
149 41 149 102 0 23 -4 28 -24 28 -34 0 -56 -10 -56 -25 0 -18 -34 -45 -58
-45 -29 0 -49 34 -58 98 -5 43 -3 56 11 72 23 25 50 25 75 0 20 -20 45 -25 74
-14 25 10 19 40 -15 68 -24 21 -41 26 -82 26 -29 -1 -66 -7 -82 -14z"/>
<path d="M2316 3504 c-20 -81 -35 -148 -33 -151 3 -2 20 -6 40 -10 34 -5 35
-4 41 34 11 65 16 67 81 48 61 -17 73 -14 77 24 3 22 -3 26 -57 39 -33 8 -62
16 -63 18 -2 1 -1 16 3 32 l6 30 52 -14 c77 -20 94 -18 101 12 4 15 6 28 4 29
-3 3 -203 55 -211 55 -3 0 -21 -66 -41 -146z"/>
<path d="M2683 3538 c-17 -23 -127 -258 -122 -262 9 -8 189 -96 197 -96 5 0
14 11 20 24 13 29 10 32 -65 70 -53 26 -61 38 -43 66 7 12 18 10 70 -15 60
-29 62 -29 76 -10 8 10 14 22 14 27 0 4 -27 21 -60 38 -64 32 -67 37 -47 62
11 15 18 14 76 -13 66 -30 74 -29 85 6 5 18 -7 27 -89 68 -52 26 -97 47 -99
47 -2 0 -8 -6 -13 -12z"/>
<path d="M1315 3351 c-166 -79 -304 -179 -446 -320 -237 -237 -379 -500 -451
-834 -30 -140 -32 -453 -4 -602 167 -897 1029 -1481 1920 -1300 553 112 1004
497 1199 1025 35 94 57 182 42 168 -4 -4 -23 -54 -41 -110 -127 -391 -430
-742 -801 -927 -121 -61 -273 -114 -407 -143 -87 -19 -131 -22 -316 -22 -185
0 -229 3 -316 22 -409 89 -754 316 -998 655 -67 94 -173 305 -211 420 -105
318 -105 675 1 1002 38 119 145 327 221 435 161 224 425 438 662 536 74 31 94
44 66 44 -11 -1 -65 -22 -120 -49z"/>
<path d="M2960 3328 c-55 -38 -100 -112 -100 -166 0 -41 4 -50 45 -88 25 -23
45 -48 45 -56 0 -16 55 -60 64 -51 3 4 6 19 6 35 0 18 5 28 15 28 20 0 92 76
116 122 25 49 24 78 -4 119 -23 36 -96 79 -133 79 -11 0 -36 -10 -54 -22z
m115 -78 c24 -26 14 -56 -33 -108 -44 -47 -63 -51 -93 -21 -25 25 -19 49 28
107 38 47 69 54 98 22z"/>
<path d="M3213 3059 c-103 -88 -116 -118 -81 -187 40 -81 120 -114 179 -74 53
36 159 127 159 138 0 6 -11 21 -25 34 l-24 23 -79 -67 c-44 -36 -89 -66 -99
-66 -24 0 -53 30 -53 53 0 9 36 47 80 84 44 38 80 72 80 76 0 15 -32 57 -44
56 -6 0 -48 -32 -93 -70z"/>
<path d="M3505 2801 c-16 -10 -74 -44 -127 -75 l-98 -57 15 -29 c8 -16 19 -31
23 -34 9 -5 225 115 250 139 12 10 11 18 -2 44 -19 36 -21 37 -61 12z"/>
<path d="M2043 2711 c-115 -84 -189 -213 -292 -511 -85 -250 -120 -335 -171
-421 -40 -68 -117 -154 -180 -202 l-35 -26 38 -1 c111 -1 406 88 542 165 201
112 413 322 509 505 51 96 69 170 64 254 -12 177 -136 266 -368 266 -58 0 -72
-4 -107 -29z"/>
<path d="M1909 2715 c-197 -54 -412 -181 -582 -344 -280 -269 -366 -568 -208
-721 27 -26 71 -56 104 -69 l57 -23 47 28 c138 80 229 226 338 544 105 306
200 485 303 570 35 29 35 30 12 29 -14 0 -46 -7 -71 -14z"/>
<path d="M3490 2579 c-68 -28 -126 -51 -127 -53 -2 -2 4 -19 12 -39 l15 -37
49 19 50 19 16 -42 c26 -64 51 -86 100 -86 53 0 92 29 100 73 9 47 -44 191
-71 194 -10 1 -75 -21 -144 -48z m142 -119 c-12 -20 -46 -24 -59 -8 -6 7 -14
23 -18 36 -5 19 -1 25 27 37 33 14 33 13 46 -18 9 -21 11 -37 4 -47z"/>
<path d="M2552 2523 c12 -44 3 -125 -23 -200 -10 -31 -19 -58 -19 -61 0 -3 24
18 53 45 30 28 73 61 98 73 24 12 46 24 48 26 4 4 -97 99 -145 137 l-22 17 10
-37z"/>
<path d="M2675 2332 c-152 -99 -280 -296 -359 -551 l-24 -80 87 -150 c47 -83
88 -151 91 -151 3 1 98 155 213 345 l208 344 -65 123 c-93 177 -80 166 -151
120z"/>
<path d="M3580 2259 c-66 -12 -100 -54 -100 -120 0 -110 50 -156 158 -145 113
12 152 46 152 134 0 120 -63 159 -210 131z m136 -94 c27 -41 7 -71 -56 -84
-69 -15 -77 -14 -100 9 -50 50 0 94 112 99 19 1 33 -7 44 -24z"/>
<path d="M2264 1909 c-43 -44 -114 -105 -156 -137 -42 -31 -76 -57 -75 -58 1
-1 38 2 82 7 44 5 94 6 112 3 32 -6 32 -6 52 63 11 37 32 97 46 132 14 36 24
66 22 67 -2 2 -39 -33 -83 -77z"/>
<path d="M992 1848 c-38 -132 -38 -134 -1 -147 47 -16 48 -15 32 37 -10 32
-13 68 -9 115 4 37 5 67 3 67 -2 0 -13 -33 -25 -72z"/>
<path d="M3535 1896 c-49 -50 -56 -162 -12 -212 53 -59 123 -33 152 59 10 28
24 59 32 67 13 13 16 13 28 -3 15 -21 9 -56 -11 -64 -9 -3 -14 -20 -14 -44 0
-33 3 -39 20 -39 49 0 93 97 76 166 -11 41 -50 74 -89 74 -43 0 -72 -30 -95
-101 -13 -42 -22 -54 -37 -54 -30 0 -34 64 -5 90 28 25 28 85 0 85 -12 0 -32
-11 -45 -24z"/>
<path d="M2691 1614 c-115 -225 -309 -386 -536 -444 -43 -11 -90 -20 -104 -21
l-26 0 25 -11 c15 -6 55 -7 99 -3 200 17 384 126 496 295 47 70 98 206 93 246
-2 19 -13 6 -47 -62z"/>
<path d="M2095 1670 c-149 -17 -348 -76 -486 -146 -89 -44 -208 -131 -222
-163 -7 -13 14 -53 84 -162 50 -79 95 -148 99 -153 9 -9 870 312 870 324 0 5
-40 75 -88 157 l-88 148 -49 1 c-28 1 -81 -2 -120 -6z"/>
<path d="M978 1628 c138 -225 114 -197 277 -310 182 -126 181 -125 170 -107
-96 165 -278 363 -381 417 -79 41 -91 41 -66 0z"/>
<path d="M2818 1523 c-29 -81 -102 -195 -178 -276 -119 -127 -261 -208 -425
-242 -44 -9 -82 -19 -85 -22 -3 -3 42 -3 100 -1 129 7 215 33 314 98 87 57
152 121 206 203 46 70 93 207 88 257 -3 32 -3 32 -20 -17z"/>
<path d="M1285 1471 c27 -34 52 -64 57 -67 6 -4 89 60 151 116 5 4 -13 3 -40
-2 -48 -9 -165 -4 -199 9 -11 4 1 -18 31 -56z"/>
<path d="M2931 1440 c-61 -202 -247 -411 -445 -500 -67 -30 -176 -60 -222 -60
-26 -1 -27 -2 -10 -12 12 -7 47 -9 96 -5 282 22 526 227 586 493 8 40 14 85
12 100 -3 27 -4 25 -17 -16z"/>
</g>
</svg>
