<?xml version="1.0" standalone="no"?>
<!DOCTYPE svg PUBLIC "-//W3C//DTD SVG 20010904//EN"
 "http://www.w3.org/TR/2001/REC-SVG-20010904/DTD/svg10.dtd">
<svg version="1.0" xmlns="http://www.w3.org/2000/svg"
 width="803.000000pt" height="139.000000pt" viewBox="0 0 803.000000 139.000000"
 preserveAspectRatio="xMidYMid meet">

<g transform="translate(0.000000,139.000000) scale(0.100000,-0.100000)"
fill="#000000" stroke="none">
<path d="M660 1143 c-133 -22 -245 -103 -294 -213 -98 -217 -18 -466 178 -556
64 -29 182 -46 291 -42 l80 3 3 78 3 77 -108 0 c-167 0 -226 25 -280 118 -25
41 -28 57 -28 132 0 98 19 145 79 198 48 42 91 52 224 52 l112 0 0 80 0 80
-117 -1 c-65 -1 -129 -4 -143 -6z"/>
<path d="M1256 1134 c-9 -8 -16 -17 -16 -19 0 -3 -52 -174 -115 -381 -63 -207
-115 -383 -115 -391 0 -11 17 -13 86 -11 l87 3 26 90 26 90 162 3 162 2 29
-92 28 -93 88 -3 c80 -3 87 -1 82 15 -116 394 -241 781 -253 791 -26 19 -257
17 -277 -4z m164 -137 c0 -3 65 -221 96 -319 5 -16 -5 -18 -115 -18 -67 0
-121 4 -121 8 0 5 7 28 14 53 8 24 31 97 51 162 30 97 39 117 56 117 10 0 19
-2 19 -3z"/>
<path d="M1896 1134 c-14 -13 -16 -65 -16 -410 l0 -394 85 0 85 0 0 165 0 165
175 0 175 0 0 75 0 75 -175 0 -175 0 0 90 0 90 175 0 175 0 0 80 0 80 -244 0
c-209 0 -247 -2 -260 -16z"/>
<path d="M2536 1134 c-14 -13 -16 -63 -16 -394 l0 -379 22 -15 c19 -13 61 -16
260 -16 l238 0 0 80 0 80 -175 0 -175 0 0 85 0 85 175 0 175 0 0 75 0 75 -175
0 -175 0 0 90 0 90 175 0 175 0 0 80 0 80 -244 0 c-209 0 -247 -2 -260 -16z"/>
<path d="M3462 1140 c-203 -43 -346 -254 -314 -464 31 -195 156 -314 354 -336
79 -9 85 -11 116 -47 l33 -38 92 -3 92 -4 -52 54 c-29 29 -53 56 -53 59 0 2
24 22 53 43 112 81 160 179 161 326 1 107 -16 169 -66 245 -83 126 -263 197
-416 165z m178 -171 c59 -27 77 -44 108 -104 37 -72 37 -179 -1 -251 -66 -128
-193 -170 -307 -101 -39 24 -61 46 -84 87 -28 50 -31 63 -31 140 0 94 18 141
73 193 60 57 162 72 242 36z"/>
<path d="M4052 883 c4 -251 5 -272 27 -326 36 -91 76 -137 156 -177 64 -32 77
-35 160 -35 122 0 183 22 251 89 34 34 59 72 75 111 22 57 24 73 27 333 l3
272 -85 0 -85 0 -3 -257 c-3 -250 -4 -259 -27 -299 -31 -55 -84 -84 -150 -84
-90 0 -151 50 -170 140 -6 28 -11 151 -11 275 l0 225 -86 0 -86 0 4 -267z"/>
<path d="M4870 740 l0 -410 85 0 85 0 0 410 0 410 -85 0 -85 0 0 -410z"/>
<path d="M5177 1133 c-16 -18 -17 -52 -17 -411 l0 -392 85 0 85 0 0 140 0 140
130 0 c154 0 210 11 281 53 76 46 111 115 111 221 -1 127 -44 192 -159 237
-52 20 -80 23 -278 27 -208 4 -221 3 -238 -15z m449 -158 c61 -25 80 -117 35
-169 -31 -36 -75 -46 -206 -46 l-125 0 0 115 0 115 130 0 c92 0 141 -4 166
-15z"/>
<path d="M6416 1120 c-46 -41 -81 -109 -136 -265 -50 -143 -75 -189 -129 -238
l-41 -37 28 0 c48 0 144 29 228 70 97 47 211 153 259 240 37 70 42 164 10 200
-29 32 -67 49 -127 56 -52 6 -57 4 -92 -26z"/>
<path d="M7224 1136 c-147 -34 -218 -105 -217 -218 1 -120 81 -189 258 -224
214 -42 222 -45 244 -68 16 -17 20 -30 16 -49 -14 -54 -83 -87 -188 -89 -86
-1 -132 16 -193 72 -24 22 -46 40 -50 40 -3 0 -37 -16 -75 -36 l-69 -37 22
-40 c53 -96 182 -151 353 -152 169 0 307 61 354 157 41 86 19 210 -47 257 -51
36 -100 52 -246 82 -198 41 -244 75 -177 132 73 61 237 42 310 -37 14 -14 33
-26 44 -26 25 0 137 61 137 75 0 20 -39 73 -74 100 -78 60 -276 90 -402 61z"/>
<path d="M6317 1116 c-94 -39 -166 -87 -238 -158 -146 -145 -167 -300 -49
-360 29 -15 36 -15 60 -3 31 16 83 73 104 113 7 15 33 81 56 147 50 140 66
176 114 238 20 26 30 47 23 47 -6 0 -38 -11 -70 -24z"/>
<path d="M6675 1039 c4 -15 2 -44 -4 -65 -6 -21 -9 -39 -8 -39 1 -1 21 10 44
25 l42 27 -40 39 c-38 37 -40 38 -34 13z"/>
<path d="M6734 951 c-64 -40 -118 -118 -157 -229 l-26 -71 41 -71 c33 -58 43
-69 53 -58 7 7 46 70 87 139 41 69 82 136 91 150 15 23 14 28 -22 91 l-37 67
-30 -18z"/>
<path d="M6545 757 c-16 -18 -48 -47 -70 -65 l-40 -32 51 0 50 0 21 65 c12 36
20 65 20 64 -1 0 -15 -15 -32 -32z"/>
<path d="M5926 718 c-10 -38 -7 -66 8 -71 10 -4 12 5 8 41 -6 56 -8 60 -16 30z"/>
<path d="M6730 588 c-59 -101 -160 -177 -264 -198 l-41 -8 46 -1 c77 -2 137
26 204 93 46 46 65 74 78 115 10 30 16 55 15 56 -2 2 -19 -24 -38 -57z"/>
<path d="M6396 623 c-39 -8 -96 -25 -128 -38 -73 -30 -161 -92 -151 -108 47
-81 87 -137 97 -137 17 0 389 139 399 149 4 5 -11 40 -35 80 -40 67 -45 71
-78 70 -19 0 -66 -7 -104 -16z"/>
<path d="M5920 624 c0 -3 14 -29 31 -58 28 -47 48 -64 163 -141 l30 -20 -34
50 c-51 75 -109 134 -152 156 -21 11 -38 17 -38 13z"/>
<path d="M6072 538 c23 -34 25 -34 62 -4 l29 24 -56 3 -55 4 20 -27z"/>
<path d="M6782 526 c-32 -68 -105 -141 -175 -176 -33 -16 -67 -30 -76 -30 -9
0 -23 -5 -31 -11 -28 -19 82 2 136 26 65 29 120 84 151 152 31 67 27 103 -5
39z"/>
<path d="M6838 482 c-52 -111 -160 -200 -270 -221 l-43 -9 50 -1 c99 -2 221
81 263 179 17 39 36 110 29 110 -1 0 -14 -26 -29 -58z"/>
</g>
</svg>
